<?xml version="1.0" standalone="no"?>
<!DOCTYPE svg PUBLIC "-//W3C//DTD SVG 1.1//EN" "http://www.w3.org/Graphics/SVG/1.1/DTD/svg11.dtd">
<svg width="128" height="200"  version="1.1" xmlns="http://www.w3.org/2000/svg" xmlns:xlink="http://www.w3.org/1999/xlink" xml:space="preserve" style="fill-rule:evenodd;clip-rule:evenodd;stroke-linejoin:round;stroke-miterlimit:1.41421;">
    <g transform="matrix(1,0,0,1,-494.24,-282.892)">
        <g transform="matrix(1.86603,0,0,1.54461,-427.75,-142.186)">
            <path d="M510.452,393.904C509.546,393.904 508.684,393.435 508.084,392.615C499.708,381.011 501.254,357.035 509.115,325.185L518.443,325.185C518.443,325.185 526.185,336.758 534.498,349.184C537.501,353.673 542.519,355.387 547.023,353.463C551.526,351.54 554.537,346.396 554.537,340.625C554.537,331.917 554.537,325.185 554.537,325.185L563.256,325.185C569.759,347.075 570.913,369.801 563.256,393.904L553.928,393.904L517.834,339.904C512.319,357.927 511.484,373.295 515.039,386.17C515.532,387.952 515.286,389.912 514.378,391.437C513.469,392.962 512.008,393.866 510.453,393.866C510.453,393.904 510.452,393.904 510.452,393.904Z" style="fill:black;fill-rule:nonzero;"/>
        </g>
        <g transform="matrix(1.1416,0,0,1,-84.517,-11.4638)">
            <path d="M617.988,339.707C617.988,337.608 616.969,335.681 615.342,334.703C613.715,333.724 611.747,333.855 610.23,335.043C590.669,350.489 569.378,350.596 546.466,336.149C544.147,334.711 541.336,334.773 539.068,336.313C536.8,337.853 535.41,340.643 535.41,343.656C535.362,343.657 535.362,343.657 535.362,343.657C568.068,369.329 595.437,368.467 617.988,343.657C617.988,343.657 617.988,341.97 617.988,339.707Z" style="fill:black;"/>
        </g>
        <g transform="matrix(1.10626,0,0,1,-53.6406,19.1447)">
            <ellipse cx="568.202" cy="292.174" rx="13.492" ry="13.035" style="fill:rgb(183,43,24);"/>
        </g>
    </g>
</svg>
